# xmcd
#
# Track frame offsets: 
#        150
#        18382
#        42821
#        61353
#        82444
#        103974
#        120632
#        138310
#        157653
#        179531
#        195639
#        215843
#        245478
#
# Disc length: 3448 seconds
#
# Revision: 5
# Processed by: cddbd v1.5.2PL0 Copyright (c) Steve Scherf et al.
# Submitted via: ExactAudioCopy v0.95b4
#
DISCID=bc0d760d
DTITLE=Destiny's Child - Destiny Fulfilled
DYEAR=2004
DGENRE=R&B
TTITLE0=Lose My Breath
TTITLE1=Soldier
TTITLE2=Cater 2 U
TTITLE3=T-Shirt
TTITLE4=Is She The Reason
TTITLE5=Girl
TTITLE6=Bad Habit
TTITLE7=If
TTITLE8=Free
TTITLE9=Through With Love
TTITLE10=Love
TTITLE11=Game Over
TTITLE12=Data
EXTD=Destiny's child group is wonderful!!!I love Beyoncé!!!Good album,
EXTD=buy it! YEAR: 2004
EXTT0=
EXTT1=
EXTT2=
EXTT3=
EXTT4=
EXTT5=
EXTT6=
EXTT7=
EXTT8=
EXTT9=
EXTT10=
EXTT11=
EXTT12=
PLAYORDER=
